<svg width="643" height="643" viewBox="0 0 643 643" fill="none" xmlns="http://www.w3.org/2000/svg">
<circle cx="321.5" cy="321.5" r="321.5" fill="#F81A2C"/>
<path d="M34 332.611L291.611 75L343.937 127.326L86.3259 384.937L34 332.611Z" fill="white"/>
<path d="M287.39 180.22L391.136 76.4744L443.462 128.8L339.716 232.546L287.39 180.22Z" fill="white"/>
<path d="M239.209 531.379L542.529 228.06L594.855 280.386L291.535 583.705L239.209 531.379Z" fill="white"/>
<path d="M139.084 431.307L442.453 127.939L494.778 180.265L191.41 483.633L139.084 431.307Z" fill="white"/>
<path d="M387.292 283.1L492.391 178L544.717 230.326L439.618 335.425L387.292 283.1Z" fill="white"/>
<path d="M189 481.1L242.482 427.617L294.808 479.943L241.326 533.425L189 481.1Z" fill="white"/>
</svg>
